<svg width="14" height="11" viewBox="0 0 14 11" fill="none" xmlns="http://www.w3.org/2000/svg">
<path d="M14 2.14815C14 2.39506 13.9157 2.60494 13.7471 2.77778L7.20774 9.48148L5.97935 10.7407C5.81075 10.9136 5.60602 11 5.36516 11C5.1243 11 4.91957 10.9136 4.75097 10.7407L3.52258 9.48148L0.252903 6.12963C0.0843011 5.95679 0 5.74691 0 5.5C0 5.25309 0.0843011 5.04321 0.252903 4.87037L1.48129 3.61111C1.64989 3.43827 1.85462 3.35185 2.09548 3.35185C2.33634 3.35185 2.54108 3.43827 2.70968 3.61111L5.36516 6.34259L11.2903 0.259259C11.4589 0.0864198 11.6637 0 11.9045 0C12.1454 0 12.3501 0.0864198 12.5187 0.259259L13.7471 1.51852C13.9157 1.69136 14 1.90123 14 2.14815Z" fill="white"/>
</svg>
