<svg width="57" height="54" viewBox="0 0 57 54" fill="none" xmlns="http://www.w3.org/2000/svg">
<path d="M51.3 11.3684C52.953 11.3684 54.2925 11.9368 55.347 13.0453C56.43 14.2105 57 15.4895 57 17.0526V48.3158C57 49.8789 56.43 51.1579 55.347 52.3232C54.2925 53.4316 52.953 54 51.3 54H5.7C4.047 54 2.7075 53.4316 1.653 52.3232C0.57 51.1579 0 49.8789 0 48.3158V17.0526C0 15.4895 0.57 14.2105 1.653 13.0453C2.7075 11.9368 4.047 11.3684 5.7 11.3684H17.1V5.68421C17.1 4.03579 17.67 2.7 18.753 1.64842C19.8075 0.568421 21.147 0 22.8 0H34.2C35.853 0 37.1925 0.568421 38.247 1.64842C39.33 2.7 39.9 4.03579 39.9 5.68421V11.3684H51.3ZM5.7 17.0526V48.3158H51.3V17.0526H5.7ZM34.2 11.3684V5.68421H22.8V11.3684H34.2Z" fill="currentColor"/>
</svg>
