<svg width="18" height="18" viewBox="0 0 18 18" fill="none" xmlns="http://www.w3.org/2000/svg">
<path d="M10.8 5.40039H1.8C0.8073 5.40039 0 6.20769 0 7.20039V16.2004C0 17.1931 0.8073 18.0004 1.8 18.0004H10.8C11.7927 18.0004 12.6 17.1931 12.6 16.2004V7.20039C12.6 6.20769 11.7927 5.40039 10.8 5.40039Z" fill="white"/>
<path d="M16.1999 0H7.1999C6.72251 0 6.26468 0.189642 5.92711 0.527208C5.58955 0.864773 5.3999 1.32261 5.3999 1.8V3.6H12.5999C13.0773 3.6 13.5351 3.78964 13.8727 4.12721C14.2103 4.46477 14.3999 4.92261 14.3999 5.4V12.6H16.1999C16.6773 12.6 17.1351 12.4104 17.4727 12.0728C17.8103 11.7352 17.9999 11.2774 17.9999 10.8V1.8C17.9999 1.32261 17.8103 0.864773 17.4727 0.527208C17.1351 0.189642 16.6773 0 16.1999 0Z" fill="white"/>
</svg>
