<svg width="70" height="70" viewBox="0 0 77 54" fill="none" xmlns="http://www.w3.org/2000/svg">
<path d="M8.25 0C3.72625 0 0 3.6585 0 8.1V45.9C0 50.3415 3.72625 54 8.25 54H68.75C73.2738 54 77 50.3415 77 45.9V8.1C77 3.6585 73.2738 0 68.75 0H8.25ZM8.25 5.4H68.75C70.3065 5.4 71.5 6.5718 71.5 8.1V45.9C71.5 47.4282 70.3065 48.6 68.75 48.6H8.25C6.6935 48.6 5.5 47.4282 5.5 45.9V8.1C5.5 6.5718 6.6935 5.4 8.25 5.4ZM24.75 10.8C18.7 10.8 13.75 15.66 13.75 21.6C13.75 24.6051 15.0617 27.3159 17.1022 29.2788C15.2304 30.519 13.6958 32.1898 12.6322 34.1456C11.5686 36.1014 11.0083 38.2829 11 40.5H16.5C16.5 35.9964 20.163 32.4 24.75 32.4C29.337 32.4 33 35.9964 33 40.5H38.5C38.4917 38.2829 37.9314 36.1014 36.8678 34.1456C35.8042 32.1898 34.2696 30.519 32.3978 29.2788C34.4383 27.3159 35.75 24.6078 35.75 21.6C35.75 15.66 30.8 10.8 24.75 10.8ZM44 13.5V18.9H66V13.5H44ZM24.75 16.2C27.8218 16.2 30.25 18.5841 30.25 21.6C30.25 24.6159 27.8218 27 24.75 27C21.6782 27 19.25 24.6159 19.25 21.6C19.25 18.5841 21.6782 16.2 24.75 16.2ZM44 24.3V29.7H66V24.3H44ZM44 35.1V40.5H57.75V35.1H44Z" fill="currentColor"/>
</svg>
