<svg width="26" height="26" viewBox="0 0 26 26" fill="none" xmlns="http://www.w3.org/2000/svg">
<path d="M26 20.9226C26 21.5062 25.7957 22.0022 25.3872 22.4108L22.4108 25.3872C22.0022 25.7957 21.5062 26 20.9226 26C20.3389 26 19.8429 25.7957 19.4343 25.3872L13 18.9529L6.56566 25.3872C6.15713 25.7957 5.66106 26 5.07744 26C4.49383 26 3.99776 25.7957 3.58923 25.3872L0.612795 22.4108C0.204265 22.0022 0 21.5062 0 20.9226C0 20.3389 0.204265 19.8429 0.612795 19.4343L7.04714 13L0.612795 6.56566C0.204265 6.15713 0 5.66106 0 5.07744C0 4.49383 0.204265 3.99776 0.612795 3.58923L3.58923 0.612795C3.99776 0.204265 4.49383 0 5.07744 0C5.66106 0 6.15713 0.204265 6.56566 0.612795L13 7.04714L19.4343 0.612795C19.8429 0.204265 20.3389 0 20.9226 0C21.5062 0 22.0022 0.204265 22.4108 0.612795L25.3872 3.58923C25.7957 3.99776 26 4.49383 26 5.07744C26 5.66106 25.7957 6.15713 25.3872 6.56566L18.9529 13L25.3872 19.4343C25.7957 19.8429 26 20.3389 26 20.9226Z" fill="white"/>
</svg>
