<svg width="27" height="20" viewBox="0 0 27 20" fill="none" xmlns="http://www.w3.org/2000/svg">
<path fill-rule="evenodd" clip-rule="evenodd" d="M24.4688 8.33333V17.5H12.6562V2.5H18.5625V6.66667C18.5625 7.10869 18.7403 7.53262 19.0568 7.84518C19.3732 8.15774 19.8024 8.33333 20.25 8.33333H24.4688ZM21.0938 2.70167L24.2646 5.83333H21.0938V2.70167ZM11.8125 0C11.3649 0 10.9357 0.175595 10.6193 0.488155C10.3028 0.800716 10.125 1.22464 10.125 1.66667H6.75C6.30245 1.66667 5.87322 1.84226 5.55676 2.15482C5.24029 2.46738 5.0625 2.89131 5.0625 3.33333H1.6875C1.23995 3.33333 0.810725 3.50893 0.494257 3.82149C0.17779 4.13405 0 4.55797 0 5L0 15C0 15.442 0.17779 15.8659 0.494257 16.1785C0.810725 16.4911 1.23995 16.6667 1.6875 16.6667H5.0625C5.0625 17.1087 5.24029 17.5326 5.55676 17.8452C5.87322 18.1577 6.30245 18.3333 6.75 18.3333H10.125C10.125 18.7754 10.3028 19.1993 10.6193 19.5118C10.9357 19.8244 11.3649 20 11.8125 20H25.3125C25.7601 20 26.1893 19.8244 26.5057 19.5118C26.8222 19.1993 27 18.7754 27 18.3333V5.69C26.9999 5.24801 26.8221 4.82415 26.5056 4.51167L22.4319 0.488333C22.1155 0.175751 21.6864 9.43957e-05 21.2389 0H11.8125ZM10.125 15.8333V4.16667H7.59375V15.8333H10.125ZM5.0625 14.1667V5.83333H2.53125V14.1667H5.0625Z" fill="currentColor"/>
</svg>
