<svg width="20" height="20" viewBox="0 0 20 20" fill="none" xmlns="http://www.w3.org/2000/svg">
<path d="M14.209 3.54949L16.4505 5.79105M15.6501 1.57476L9.58611 7.63872C9.27279 7.9516 9.05911 8.35024 8.97199 8.78438L8.41187 11.5882L11.2157 11.027C11.6498 10.9402 12.0479 10.7273 12.3613 10.4139L18.4253 4.34997C18.6075 4.16775 18.752 3.95142 18.8507 3.71333C18.9493 3.47525 19 3.22007 19 2.96237C19 2.70467 18.9493 2.44949 18.8507 2.2114C18.752 1.97332 18.6075 1.75699 18.4253 1.57476C18.2431 1.39254 18.0267 1.24799 17.7886 1.14938C17.5506 1.05076 17.2954 1 17.0377 1C16.78 1 16.5248 1.05076 16.2867 1.14938C16.0486 1.24799 15.8323 1.39254 15.6501 1.57476Z" stroke="#0086FF" stroke-width="2" stroke-linecap="round" stroke-linejoin="round"/>
<path d="M16.8825 13.7055V16.8821C16.8825 17.4437 16.6594 17.9823 16.2623 18.3795C15.8651 18.7766 15.3265 18.9997 14.7649 18.9997H3.11767C2.55603 18.9997 2.01739 18.7766 1.62025 18.3795C1.22311 17.9823 1 17.4437 1 16.8821V5.23486C1 4.67322 1.22311 4.13458 1.62025 3.73744C2.01739 3.3403 2.55603 3.11719 3.11767 3.11719H6.29418" stroke="#0086FF" stroke-width="2" stroke-linecap="round" stroke-linejoin="round"/>
</svg>
