<svg width="124" height="101" viewBox="0 0 124 101" fill="none" xmlns="http://www.w3.org/2000/svg">
<path fill-rule="evenodd" clip-rule="evenodd" d="M118.879 0.430664L70.5577 0.430664L67.4827 1.69649L61.772 7.09733L56.0613 1.69649L52.9863 0.430664L4.66483 0.430664L0.271973 4.65007L0.271973 89.0383L4.66483 93.2577H51.1413L58.697 100.431H64.847L72.4027 93.2577H118.879L123.272 89.0383V4.65007L118.879 0.430664ZM57.3791 87.5193L55.7977 86.0847L52.9863 84.8188H9.05769L9.05769 8.86948L51.1413 8.86948L57.6427 15.1142L57.3791 87.5193ZM114.486 84.8188H70.5577L67.4827 86.0847L66.2527 87.1817V14.7767L72.4027 8.86948L114.486 8.86948V84.8188ZM44.2005 25.7471L17.8434 25.7471L17.8434 34.1859H44.2005V25.7471ZM44.2005 59.5024H17.8434V67.9412H44.2005L44.2005 59.5024ZM17.8434 42.6248H44.2005V51.0636H17.8434V42.6248ZM105.701 25.7471L79.3434 25.7471V34.1859H105.701V25.7471ZM79.3434 42.6248H105.701V51.0636H79.3434V42.6248ZM79.3434 59.5024H105.701V67.9412H79.3434V59.5024Z" fill="currentColor"/>
</svg>
