<svg width="22" height="23" viewBox="0 0 22 23" fill="none" xmlns="http://www.w3.org/2000/svg">
<path d="M11.6854 1.95678C11.4941 1.79292 11.2511 1.70294 11 1.70294C10.7489 1.70294 10.5059 1.79292 10.3146 1.95678L2.06462 9.01776C1.94781 9.11782 1.854 9.24226 1.78972 9.38246C1.72543 9.52266 1.69219 9.67525 1.69231 9.82967V20.8701C1.69231 20.9831 1.73688 21.0914 1.81622 21.1713C1.89557 21.2512 2.00318 21.2961 2.11538 21.2961H6.34615C6.45836 21.2961 6.56597 21.2512 6.64531 21.1713C6.72466 21.0914 6.76923 20.9831 6.76923 20.8701V14.9065C6.76923 14.3416 6.9921 13.7998 7.38881 13.4004C7.78552 13.001 8.32358 12.7766 8.88462 12.7766H13.1188C13.3966 12.7766 13.6716 12.8317 13.9283 12.9387C14.1849 13.0457 14.4181 13.2026 14.6146 13.4004C14.811 13.5982 14.9668 13.833 15.0731 14.0914C15.1794 14.3498 15.2342 14.6268 15.2342 14.9065V20.8701C15.2342 20.9831 15.2787 21.0914 15.3581 21.1713C15.4374 21.2512 15.545 21.2961 15.6572 21.2961H19.8846C19.9968 21.2961 20.1044 21.2512 20.1838 21.1713C20.2631 21.0914 20.3077 20.9831 20.3077 20.8701V9.82882C20.3077 9.67454 20.2744 9.52211 20.2101 9.38207C20.1458 9.24203 20.0521 9.11773 19.9354 9.01776L11.6854 1.95678ZM9.21885 0.659255C9.71607 0.233674 10.3474 -1.17506e-06 11 -1.17506e-06C11.6526 -1.17506e-06 12.2839 0.233674 12.7812 0.659255L21.0312 7.71938C21.3348 7.9793 21.5787 8.30257 21.746 8.6668C21.9133 9.03103 22 9.42752 22 9.82882V20.8701C22 21.435 21.7771 21.9767 21.3804 22.3762C20.9837 22.7756 20.4457 23 19.8846 23H15.6572C15.0962 23 14.5581 22.7756 14.1614 22.3762C13.7647 21.9767 13.5418 21.435 13.5418 20.8701V14.9065C13.5418 14.7935 13.4973 14.6851 13.4179 14.6052C13.3386 14.5254 13.231 14.4805 13.1188 14.4805H8.88462C8.77241 14.4805 8.6648 14.5254 8.58545 14.6052C8.50611 14.6851 8.46154 14.7935 8.46154 14.9065V20.8701C8.46154 21.435 8.23867 21.9767 7.84196 22.3762C7.44525 22.7756 6.90719 23 6.34615 23H2.11538C1.55435 23 1.01629 22.7756 0.619582 22.3762C0.22287 21.9767 0 21.435 0 20.8701V9.82882C2.22631e-05 9.42752 0.0866787 9.03103 0.253968 8.6668C0.421257 8.30257 0.665181 7.9793 0.968846 7.71938L9.21885 0.659255Z" fill="currentColor"/>
</svg>
