<svg width="72" height="72" viewBox="0 0 72 72" fill="none" xmlns="http://www.w3.org/2000/svg">
<g clip-path="url(#clip0_873_1156)">
<path d="M31.5 60C31.5 61.1935 31.9741 62.3381 32.818 63.182C33.6619 64.0259 34.8065 64.5 36 64.5C37.1935 64.5 38.3381 64.0259 39.182 63.182C40.0259 62.3381 40.5 61.1935 40.5 60V40.5H60C61.1935 40.5 62.3381 40.0259 63.182 39.182C64.0259 38.3381 64.5 37.1935 64.5 36C64.5 34.8065 64.0259 33.6619 63.182 32.818C62.3381 31.9741 61.1935 31.5 60 31.5H40.5V12C40.5 10.8065 40.0259 9.66193 39.182 8.81802C38.3381 7.97411 37.1935 7.5 36 7.5C34.8065 7.5 33.6619 7.97411 32.818 8.81802C31.9741 9.66193 31.5 10.8065 31.5 12V31.5H12C10.8065 31.5 9.66193 31.9741 8.81802 32.818C7.97411 33.6619 7.5 34.8065 7.5 36C7.5 37.1935 7.97411 38.3381 8.81802 39.182C9.66193 40.0259 10.8065 40.5 12 40.5H31.5V60Z" fill="white"/>
</g>
<defs>
<clipPath id="clip0_873_1156">
<rect width="72" height="72" fill="white"/>
</clipPath>
</defs>
</svg>
