<svg width="141" height="100" viewBox="0 0 141 100" fill="none" xmlns="http://www.w3.org/2000/svg">
<path d="M18.0443 31.6732C18.0436 26.4279 19.3179 21.2647 21.7524 16.6479C24.1868 12.0312 27.7052 8.10573 31.9911 5.22462C36.2769 2.34352 41.1957 0.597126 46.3052 0.142522C51.4147 -0.312082 56.5545 0.539359 61.2625 2.62027C65.9704 4.70117 70.0987 7.94628 73.2761 12.0637C76.4536 16.1811 78.5805 21.0418 79.4655 26.2084C80.3505 31.375 79.966 36.6857 78.3464 41.6626C76.7268 46.6395 73.923 51.1267 70.1872 54.7205C77.2316 58.2165 83.3478 63.3983 88.0171 69.8265C92.6865 76.2547 95.7713 83.7396 97.0101 91.6467C97.1465 92.5265 97.1121 93.4252 96.9089 94.2915C96.7057 95.1577 96.3377 95.9746 95.8259 96.6954C95.314 97.4162 94.6683 98.0268 93.9257 98.4924C93.1831 98.958 92.3581 99.2695 91.4978 99.409C90.6376 99.5485 89.7588 99.5133 88.9118 99.3055C88.0648 99.0977 87.2661 98.7213 86.5613 98.1979C85.8565 97.6744 85.2595 97.014 84.8042 96.2545C84.349 95.4951 84.0445 94.6513 83.908 93.7715C82.582 85.2751 78.3377 77.5405 71.9373 71.9566C65.5369 66.3727 57.3997 63.3053 48.987 63.3053C40.5742 63.3053 32.437 66.3727 26.0366 71.9566C19.6362 77.5405 15.3919 85.2751 14.0659 93.7715C13.9289 94.6513 13.6238 95.4949 13.168 96.2542C12.7122 97.0134 12.1147 97.6735 11.4095 98.1965C10.7043 98.7196 9.9053 99.0955 9.05807 99.3027C8.21084 99.51 7.33198 99.5446 6.47169 99.4045C5.6114 99.2643 4.78652 98.9523 4.04414 98.4862C3.30176 98.02 2.65642 97.4089 2.14498 96.6877C1.63353 95.9665 1.26599 95.1493 1.06334 94.2828C0.860686 93.4163 0.826894 92.5175 0.96389 91.6376C2.20456 83.7336 5.29035 76.2519 9.95966 69.827C14.629 63.402 20.7442 58.2232 27.7868 54.7295C24.7073 51.7722 22.2538 48.2003 20.578 44.2345C18.9023 40.2687 18.0399 35.9935 18.0443 31.6732ZM97.6112 18.1107C102.748 18.1144 107.773 19.6429 112.077 22.5108C116.38 25.3787 119.777 29.4626 121.856 34.2668C123.934 39.071 124.604 44.3888 123.784 49.5749C122.964 54.7609 120.69 59.592 117.238 63.4819C122.619 66.2141 127.4 70.0374 131.291 74.7193C135.182 79.4011 138.101 84.8435 139.87 90.7154C140.221 91.8553 140.27 93.0697 140.013 94.2354C139.756 95.401 139.202 96.4765 138.408 97.3525C137.613 98.2285 136.606 98.8739 135.489 99.2232C134.372 99.5724 133.184 99.6131 132.046 99.3412C130.909 99.0704 129.862 98.4983 129.01 97.6825C128.158 96.8667 127.531 95.8359 127.192 94.6937C125.608 89.4515 122.721 84.7194 118.812 80.9602C114.904 77.201 110.109 74.5432 104.896 73.2469C103.448 72.8894 102.16 72.0439 101.24 70.8465C100.319 69.6491 99.8196 68.1696 99.8214 66.6464V63.4638C99.8207 62.2013 100.164 60.9636 100.814 59.8901C101.464 58.8166 102.394 57.95 103.499 57.3878C106.179 56.0293 108.332 53.784 109.607 51.0165C110.882 48.2491 111.204 45.122 110.522 42.1434C109.84 39.1647 108.194 36.5093 105.85 34.6086C103.506 32.7079 100.603 31.6734 97.6112 31.6732C95.8527 31.6732 94.1662 30.9588 92.9227 29.687C91.6792 28.4153 90.9807 26.6905 90.9807 24.892C90.9807 23.0935 91.6792 21.3686 92.9227 20.0969C94.1662 18.8252 95.8527 18.1107 97.6112 18.1107ZM48.987 13.5899C46.6323 13.5354 44.2908 13.9626 42.0998 14.8464C39.9088 15.7302 37.9125 17.0527 36.2282 18.7364C34.5439 20.4201 33.2054 22.431 32.2914 24.6509C31.3774 26.8709 30.9063 29.2553 30.9057 31.6641C30.9051 34.0728 31.3751 36.4575 32.288 38.6779C33.2009 40.8984 34.5384 42.9099 36.2219 44.5945C37.9054 46.279 39.901 47.6026 42.0916 48.4875C44.2821 49.3724 46.6235 49.8008 48.9781 49.7475C53.598 49.6431 57.9943 47.693 61.2259 44.3149C64.4575 40.9368 66.2676 36.3991 66.2688 31.6731C66.2699 26.9471 64.462 22.4085 61.2321 19.0287C58.0021 15.649 53.6068 13.6967 48.987 13.5899Z" fill="currentColor"/>
</svg>
